# xmcd CD database file
#
# Track frame offsets:
#	150
#	13720
#	30620
#	42392
#	56585
#	71465
#	85910
#	103640
#	118907
#	137245
#
# Disc length: 2013 seconds
#
# Revision: 6
# Processed by: cddbd v1.5.2PL0 Copyright (c) Steve Scherf et al.
# Submitted via: CDex 1.51
#
DISCID=8807db0a
DTITLE=Ozark Mountain Daredevils - Their Greatest Hits
DYEAR=2002
DGENRE=Country
TTITLE0=Black Sky
TTITLE1=If You Wanna Get To Heaven
TTITLE2=Homemade Wine
TTITLE3=It'll Shine When It Shines
TTITLE4=Fly Away Home
TTITLE5=Country Girl
TTITLE6=You Made It Right
TTITLE7=Walkin' Down the Road
TTITLE8=Jackie Blue
TTITLE9=Chicken Train
EXTD=YEAR: 2002
EXTT0=
EXTT1=
EXTT2=
EXTT3=
EXTT4=
EXTT5=
EXTT6=
EXTT7=
EXTT8=
EXTT9=
PLAYORDER=
